<?xml version="1.0" standalone="no"?>
<!DOCTYPE svg PUBLIC "-//W3C//DTD SVG 20010904//EN"
 "http://www.w3.org/TR/2001/REC-SVG-20010904/DTD/svg10.dtd">
<svg version="1.0" xmlns="http://www.w3.org/2000/svg"
 width="512.000000pt" height="512.000000pt" viewBox="0 0 512.000000 512.000000"
 preserveAspectRatio="xMidYMid meet">
<metadata>
Created by potrace 1.15, written by Peter Selinger 2001-2017
</metadata>
<g transform="translate(0.000000,512.000000) scale(0.100000,-0.100000)"
fill="#000000" stroke="none">
<path d="M1731 4879 c-13 -17 -30 -28 -37 -25 -8 3 -30 -15 -53 -42 -41 -48
-149 -142 -121 -106 8 11 4 9 -9 -6 -13 -14 -28 -25 -33 -25 -4 0 -8 -3 -9 -7
0 -4 -4 -21 -9 -38 -5 -19 -5 -28 1 -25 5 4 10 1 10 -4 1 -6 2 -15 3 -20 0 -6
8 -16 16 -23 12 -11 12 -10 0 7 -15 20 -15 20 8 1 12 -11 21 -25 18 -32 -3 -7
5 -20 17 -31 22 -18 22 -18 7 3 -8 11 -2 7 13 -8 15 -16 25 -33 22 -39 -4 -5
-1 -8 7 -7 7 2 12 -4 10 -12 -2 -8 0 -12 4 -8 10 11 34 -11 28 -26 -3 -7 6
-21 18 -32 l23 -19 -20 25 -20 25 27 -24 c15 -13 26 -27 23 -31 -2 -3 6 -17
18 -31 12 -14 18 -18 12 -9 -6 9 -1 8 13 -4 12 -11 21 -25 18 -32 -3 -7 5 -20
17 -31 21 -18 21 -18 7 2 -15 20 -14 20 8 1 12 -11 22 -24 22 -31 0 -6 7 -20
16 -31 8 -10 12 -12 8 -4 -4 8 5 4 19 -9 15 -14 26 -26 24 -27 -2 -2 -180 -4
-396 -4 l-393 -2 -25 -26 c-14 -15 -22 -20 -17 -12 8 13 7 13 -6 0 -8 -9 -23
-27 -33 -41 -10 -13 -15 -18 -11 -10 5 9 3 12 -5 7 -6 -4 -9 -11 -6 -16 3 -4
-4 -28 -15 -51 -19 -42 -20 -71 -22 -564 l-3 -520 -5 510 -5 510 -2 -535 c0
-294 3 -526 7 -515 8 18 9 18 9 2 1 -10 -4 -28 -10 -39 -8 -14 -8 -23 0 -31
14 -14 14 -54 1 -62 -6 -3 -10 -14 -9 -23 0 -14 2 -13 9 3 5 12 9 -43 9 -143
1 -101 -3 -171 -10 -184 -8 -15 -8 -19 0 -14 7 5 11 -6 11 -33 0 -23 -4 -41
-8 -41 -5 0 -9 -7 -9 -15 0 -8 4 -12 9 -9 4 3 8 0 8 -5 0 -6 -5 -11 -11 -11
-8 0 -8 -4 0 -13 7 -9 8 -24 1 -45 -5 -18 -5 -30 -1 -28 4 3 8 -188 8 -424 1
-317 -2 -430 -11 -430 -6 0 -4 -5 4 -10 13 -9 13 -10 0 -10 -9 0 -11 -3 -5 -8
12 -8 13 -53 19 -538 2 -205 8 -366 15 -389 6 -21 8 -41 6 -44 -3 -2 -5 2 -5
9 0 7 -2 11 -5 8 -9 -8 6 -38 16 -33 5 3 11 -6 15 -20 4 -15 17 -30 30 -36 13
-4 23 -14 22 -21 -2 -8 6 -12 20 -11 13 2 25 -4 28 -12 4 -8 10 -15 16 -15 5
0 7 4 4 9 -3 4 6 6 20 3 19 -3 22 -7 12 -13 -7 -5 450 -8 1022 -6 l1035 2
-1020 5 -1020 5 1013 3 1014 2 45 40 c25 22 50 37 56 33 5 -3 7 -1 4 4 -9 14
151 166 165 157 6 -4 8 -3 5 3 -8 12 160 176 172 169 4 -3 34 23 67 57 l59 62
-61 -55 c-33 -30 -22 -18 24 27 46 46 87 81 91 78 4 -2 34 24 67 58 l59 62
-61 -55 c-33 -30 -25 -20 19 22 44 43 83 76 87 73 9 -5 102 89 95 97 -9 9 46
49 58 41 5 -3 7 -2 4 4 -3 5 10 25 31 44 l37 34 -30 -35 c-28 -33 -28 -34 -2
-10 l27 26 -1 1409 c-2 1587 -1 1465 -13 1457 -5 -3 -7 2 -3 11 4 10 2 16 -6
14 -7 -1 -12 5 -12 14 0 17 -23 49 -33 47 -21 -2 -32 3 -26 14 4 6 3 8 -3 5
-6 -4 -27 0 -47 8 -30 13 -146 15 -811 15 l-776 0 -32 37 c-18 20 -31 43 -31
49 1 7 -10 23 -25 36 l-26 23 20 -26 c11 -14 5 -10 -13 8 -18 19 -30 37 -28
42 3 5 -4 17 -17 27 -22 19 -22 19 -7 -2 8 -11 3 -7 -12 10 -15 16 -25 32 -23
36 3 4 -5 16 -18 26 -22 19 -22 19 -7 -1 10 -14 7 -13 -8 3 -12 13 -20 27 -17
31 2 5 -5 17 -18 27 -22 19 -22 19 -7 -2 8 -11 2 -7 -13 8 -15 16 -25 33 -22
37 2 5 -3 15 -13 22 -16 13 -16 12 -3 -6 7 -11 2 -7 -13 8 -14 16 -24 32 -21
36 2 5 -8 19 -23 32 l-27 24 25 -30 25 -30 -28 25 c-15 13 -25 30 -22 38 2 7
1 11 -4 8 -11 -7 -73 62 -66 73 2 5 -5 17 -18 27 l-22 19 20 -25 20 -25 -23
19 c-12 11 -21 25 -18 32 3 7 -5 20 -17 31 l-22 18 20 -25 20 -25 -28 25 c-15
13 -26 29 -23 36 3 7 -5 20 -17 31 l-22 18 20 -25 20 -25 -23 19 c-12 11 -20
26 -17 33 2 8 1 12 -4 9 -9 -6 -34 18 -27 25 2 2 -12 5 -32 6 -30 2 -41 -3
-61 -28z m417 -1097 c23 -24 24 -24 7 -2 l-20 25 27 -24 c15 -13 25 -27 23
-32 -3 -4 5 -18 17 -31 16 -16 18 -17 8 -3 -12 16 -9 15 13 -4 15 -14 26 -32
25 -40 -2 -9 4 -16 12 -16 8 -1 14 -7 12 -14 -1 -7 2 -10 7 -7 5 3 13 0 19 -7
10 -12 12 -17 12 -38 0 -5 4 -8 9 -5 5 4 24 -9 42 -26 18 -18 29 -26 25 -18
-4 8 2 4 14 -10 12 -14 19 -19 15 -12 -6 11 -3 12 14 3 11 -7 21 -14 21 -17 0
-3 -5 -2 -12 2 -7 4 -8 3 -4 -4 4 -6 13 -9 21 -5 8 3 15 1 15 -5 0 -5 25 -22
55 -37 30 -14 60 -35 65 -46 6 -10 20 -24 31 -30 17 -8 20 -8 14 1 -6 9 -2 9
14 0 12 -6 18 -16 15 -22 -5 -7 -2 -8 6 -3 8 5 20 -1 32 -16 11 -13 17 -17 13
-9 -4 8 3 4 15 -10 12 -14 18 -19 14 -11 -13 25 57 -21 105 -69 25 -25 39 -36
31 -24 -8 11 -2 6 14 -10 16 -17 26 -25 22 -19 -4 8 5 6 23 -4 16 -10 27 -22
24 -27 -4 -5 -1 -6 6 -1 9 5 11 20 7 44 -4 20 -7 44 -8 53 -1 9 -7 14 -12 11
-5 -4 -7 1 -3 10 4 10 2 16 -6 14 -7 -1 -11 6 -11 15 1 10 -3 15 -9 11 -6 -4
-8 0 -4 11 4 9 3 15 -2 12 -12 -8 -64 103 -57 121 3 8 2 11 -3 8 -12 -7 -24
31 -15 46 4 7 3 9 -4 5 -13 -8 -26 29 -16 45 4 7 3 9 -3 6 -14 -9 -37 48 -27
64 4 7 3 10 -4 5 -13 -8 -26 29 -16 45 4 7 3 9 -3 6 -6 -4 -13 -1 -16 6 -3 6
-14 35 -26 64 l-20 52 564 1 565 0 0 -1254 0 -1255 -312 -5 c-324 -5 -359 -7
-352 -17 5 -9 -26 -20 -36 -14 -5 3 -12 0 -16 -6 -5 -8 -3 -9 6 -4 9 6 11 4 6
-4 -5 -7 -14 -10 -22 -7 -8 3 -13 0 -11 -6 1 -7 -5 -12 -13 -13 -8 0 -15 -4
-16 -10 -2 -21 -16 -45 -24 -40 -10 6 -22 -28 -26 -70 -1 -16 -3 -149 -5 -295
l-4 -265 -867 -3 -868 -2 0 1635 0 1635 420 0 420 0 28 -28z"/>
<path d="M1295 1975 c0 -456 1 -645 2 -418 2 226 2 600 0 830 -1 230 -2 45 -2
-412z"/>
<path d="M2050 2685 c-30 -9 -74 -27 -98 -40 -25 -14 -40 -19 -36 -12 5 7 -3
-1 -18 -18 -15 -16 -44 -45 -65 -64 -21 -19 -29 -28 -18 -20 19 14 19 14 0
-12 -11 -15 -23 -25 -27 -23 -3 2 -4 -4 -1 -15 3 -10 0 -22 -6 -25 -6 -4 -11
-15 -11 -26 0 -10 -7 -20 -15 -24 -8 -3 -15 -11 -15 -18 0 -9 3 -8 10 2 5 8
10 10 10 4 0 -6 -7 -17 -15 -24 -8 -7 -15 -20 -14 -29 0 -12 2 -11 9 4 8 20 9
20 9 -1 1 -11 -2 -24 -6 -27 -12 -13 -2 -159 16 -230 10 -39 16 -78 13 -86 -3
-8 -1 -12 5 -8 5 4 15 -5 22 -19 8 -18 8 -23 0 -18 -8 4 -8 0 0 -15 7 -11 14
-21 17 -21 3 0 2 5 -2 12 -4 7 -3 8 4 4 7 -4 12 -15 12 -24 0 -22 69 -92 85
-86 7 3 19 -4 27 -15 8 -12 17 -18 21 -15 7 8 48 -6 43 -14 -2 -4 19 -8 47
-10 28 -1 66 -6 85 -11 18 -6 43 -6 55 -2 13 5 29 4 39 -2 13 -9 21 -7 36 6
10 9 23 17 28 17 5 0 2 -5 -6 -11 -12 -9 -12 -10 3 -5 10 3 24 6 30 6 8 0 7 3
-1 9 -10 6 -5 12 20 21 18 8 38 14 45 14 6 1 27 17 45 37 18 19 24 24 13 10
l-20 -26 26 23 c15 13 26 31 25 40 0 9 5 16 12 14 6 -1 11 1 11 5 -3 20 2 34
11 28 6 -4 7 1 3 11 -4 12 -3 15 5 10 8 -5 10 -1 5 10 -4 12 -3 15 5 10 7 -4
10 -2 7 6 -3 8 1 33 10 57 8 24 15 47 15 51 0 7 -155 50 -179 50 -5 0 -12 -16
-15 -35 -5 -22 -11 -33 -18 -29 -7 4 -8 3 -4 -5 10 -16 -3 -53 -16 -45 -7 5
-9 1 -5 -8 6 -17 -35 -63 -45 -52 -4 3 -15 1 -25 -6 -17 -11 -17 -11 0 -6 11
4 16 2 12 -5 -4 -6 -20 -8 -38 -4 -21 4 -27 3 -19 -3 22 -15 -43 -23 -95 -12
-56 13 -85 28 -78 40 3 6 -1 7 -9 4 -19 -7 -71 69 -62 91 3 9 2 14 -3 10 -5
-3 -14 18 -20 45 -19 87 -11 239 11 208 6 -9 7 -6 3 10 -8 27 3 65 16 57 5 -3
6 0 3 8 -7 19 45 80 62 73 8 -3 13 0 11 6 -1 6 4 13 12 16 9 3 11 0 7 -9 -4
-8 -1 -6 7 4 23 27 115 34 172 13 47 -18 91 -67 79 -87 -4 -7 -3 -9 4 -5 6 3
15 -9 22 -31 22 -73 20 -70 31 -50 6 9 20 17 32 16 21 0 21 -1 2 -9 -16 -7
-17 -9 -3 -9 9 -1 21 5 25 13 4 7 31 18 58 25 46 11 50 14 50 40 0 16 -4 27
-9 23 -5 -3 -7 5 -4 16 4 14 2 20 -5 15 -7 -4 -8 0 -4 11 5 11 3 15 -5 10 -8
-5 -9 -2 -5 10 5 11 3 15 -5 10 -8 -5 -9 -2 -5 9 3 9 1 19 -5 23 -7 5 -8 2 -3
-7 6 -11 5 -11 -4 -3 -7 6 -13 19 -15 28 -3 18 -52 73 -80 88 -13 7 -16 7 -12
-1 4 -5 -19 2 -51 16 -72 34 -198 41 -283 18z"/>
<path d="M2506 2675 c-4 -11 -2 -14 6 -9 7 5 9 0 6 -14 -4 -12 -3 -20 2 -17 4
3 11 -2 14 -11 4 -10 2 -13 -7 -8 -7 5 -5 0 3 -11 8 -10 15 -25 16 -34 3 -54
4 -56 13 -42 7 11 10 9 16 -8 3 -11 3 -26 -1 -32 -4 -7 -3 -9 4 -6 10 7 47
-82 37 -91 -3 -3 -5 1 -5 8 0 7 -2 11 -5 8 -8 -8 6 -39 15 -33 12 7 44 -81 35
-96 -5 -7 -4 -10 2 -6 13 8 47 -78 37 -94 -4 -7 -3 -9 4 -5 13 8 26 -29 16
-45 -4 -8 -3 -9 5 -5 9 6 10 0 6 -21 -5 -23 -4 -25 5 -13 10 12 11 11 7 -8 -3
-12 -1 -20 3 -17 12 7 23 -32 14 -46 -4 -7 -3 -9 4 -6 6 4 22 -23 40 -70 17
-43 34 -87 38 -97 6 -15 4 -17 -6 -11 -9 6 -11 4 -5 -6 25 -44 37 -49 119 -51
l81 -2 -85 -6 -85 -6 80 -2 c79 -2 100 3 100 23 1 27 28 84 37 79 7 -4 8 -2 4
5 -10 16 3 53 16 45 7 -5 8 -2 4 5 -11 17 33 133 47 124 6 -3 7 -1 3 6 -10 16
3 53 16 45 7 -4 8 -2 4 5 -9 14 2 53 14 46 4 -3 6 5 2 17 -4 16 -2 19 8 13 9
-5 11 -4 6 4 -10 16 3 53 16 45 7 -4 8 -2 4 5 -10 16 3 53 16 45 7 -4 8 -2 4
5 -10 16 3 53 16 45 7 -5 8 -2 4 5 -11 17 33 133 47 124 6 -3 7 -1 3 6 -10 16
3 53 16 45 7 -4 8 -2 4 5 -10 16 3 53 16 45 7 -4 8 -2 4 5 -9 14 2 53 14 46 4
-3 6 5 2 17 -3 11 -1 19 4 16 5 -4 9 7 10 23 l1 29 -94 0 c-80 0 -95 -3 -100
-17 -4 -10 -14 -24 -22 -31 -11 -9 -11 -11 -2 -6 11 6 13 3 7 -12 -5 -10 -13
-31 -18 -46 -5 -16 -14 -26 -18 -23 -4 3 -6 -5 -2 -17 4 -16 2 -19 -8 -13 -9
5 -11 4 -6 -4 9 -14 -2 -53 -14 -46 -4 3 -6 -5 -2 -17 4 -16 2 -19 -8 -13 -9
5 -11 4 -6 -4 9 -15 -3 -53 -15 -46 -5 3 -6 -1 -3 -10 4 -9 -2 -25 -12 -37
-11 -12 -14 -18 -7 -14 9 5 10 0 2 -24 -6 -16 -15 -28 -19 -25 -4 3 -6 -5 -2
-17 4 -16 2 -19 -8 -13 -9 5 -11 4 -6 -4 9 -14 -12 -83 -24 -76 -4 3 -11 -2
-14 -11 -4 -10 -2 -13 6 -8 7 5 9 2 6 -7 -3 -8 -14 -37 -24 -66 l-18 -52 -58
162 c-32 89 -56 168 -53 175 3 8 0 10 -7 6 -8 -5 -9 2 -4 22 4 19 3 24 -2 15
-12 -17 -57 112 -46 130 5 8 3 9 -6 4 -10 -6 -11 -1 -6 21 4 19 3 24 -2 15 -7
-9 -15 3 -29 45 l-20 59 -100 3 c-84 2 -102 0 -107 -13z"/>
<path d="M2848 4153 c217 -2 568 -2 780 0 213 1 36 2 -393 2 -429 0 -603 -1
-387 -2z"/>
<path d="M4205 2555 c0 -765 1 -1076 2 -692 2 384 2 1010 0 1390 -1 381 -2 67
-2 -698z"/>
</g>
</svg>
